HIERARCHY
ROOT Hips
{
    OFFSET 0.000000 0.000000 0.000000
    CHANNELS 6 Xposition Yposition Zposition Zrotation Xrotation Yrotation
    JOINT Spine
    {
        OFFSET -0.000000 7.236184 0.000000
        CHANNELS 3 Zrotation Xrotation Yrotation
        JOINT Spine1
        {
            OFFSET -0.000000 20.420147 0.000000
            CHANNELS 3 Zrotation Xrotation Yrotation
            JOINT Neck
            {
                OFFSET -0.000000 20.336288 1.848754
                CHANNELS 3 Zrotation Xrotation Yrotation
                JOINT Head
                {
                    OFFSET -0.000000 12.354461 -1.764923
                    CHANNELS 3 Zrotation Xrotation Yrotation
                    End Site
                    {
                        OFFSET -0.000000 22.061537 0.000000
                    }
                }
            }
            JOINT LeftShoulder
            {
                OFFSET 3.573296 18.396038 -0.314103
                CHANNELS 3 Zrotation Xrotation Yrotation
                JOINT LeftArm
                {
                    OFFSET 10.880760 0.000000 0.000000
                    CHANNELS 3 Zrotation Xrotation Yrotation
                    JOINT LeftForeArm
                    {
                        OFFSET 27.185530 0.000000 0.000000
                        CHANNELS 3 Zrotation Xrotation Yrotation
                        JOINT LeftHand
                        {
                            OFFSET 27.825975 0.000000 0.000000
                            CHANNELS 3 Zrotation Xrotation Yrotation
                            End Site
                            {
                                OFFSET 13.236923 0.000000 0.000000
                            }
                        }
                    }
                }
            }
            JOINT RightShoulder
            {
                OFFSET -3.474926 18.396038 -0.314103
                CHANNELS 3 Zrotation Xrotation Yrotation
                JOINT RightArm
                {
                    OFFSET -10.880760 0.000000 0.000000
                    CHANNELS 3 Zrotation Xrotation Yrotation
                    JOINT RightForeArm
                    {
                        OFFSET -27.185530 0.000000 0.000000
                        CHANNELS 3 Zrotation Xrotation Yrotation
                        JOINT RightHand
                        {
                            OFFSET -27.825975 0.000000 0.000000
                            CHANNELS 3 Zrotation Xrotation Yrotation
                            End Site
                            {
                                OFFSET -13.236923 0.000000 0.000000
                            }
                        }
                    }
                }
            }
        }
    }
    JOINT LeftUpLeg
    {
        OFFSET 8.824615 0.000000 0.000000
        CHANNELS 3 Zrotation Xrotation Yrotation
        JOINT LeftLeg
        {
            OFFSET -0.000000 -35.111282 0.000000
            CHANNELS 3 Zrotation Xrotation Yrotation
            JOINT LeftFoot
            {
                OFFSET -0.000000 -42.324711 0.000000
                CHANNELS 3 Zrotation Xrotation Yrotation
                JOINT LeftToeBase
                {
                    OFFSET -0.000000 -5.735999 13.236923
                    CHANNELS 3 Zrotation Xrotation Yrotation
                    End Site
                    {
                        OFFSET -0.000000 0.000000 3.529846
                    }
                }
            }
        }
    }
    JOINT RightUpLeg
    {
        OFFSET -8.824615 0.000000 0.000000
        CHANNELS 3 Zrotation Xrotation Yrotation
        JOINT RightLeg
        {
            OFFSET -0.000000 -35.111282 0.000000
            CHANNELS 3 Zrotation Xrotation Yrotation
            JOINT RightFoot
            {
                OFFSET -0.000000 -42.324711 0.000000
                CHANNELS 3 Zrotation Xrotation Yrotation
                JOINT RightToeBase
                {
                    OFFSET -0.000000 -5.735999 13.236923
                    CHANNELS 3 Zrotation Xrotation Yrotation
                    End Site
                    {
                        OFFSET -0.000000 0.000000 3.529846
                    }
                }
            }
        }
    }
}
MOTION
Frames:    12
Frame Time:    0.008333
-4.126483    81.460106    99.597206    -0.121882    -10.893388    -174.809326    -1.948007    -12.266477    0.794843    1.679267    8.712852    0.876297    2.209131    4.727167    -2.403512    3.822627    -13.592416    -1.750104    0.270517    16.815569    -3.313063    -37.851826    45.521309    -48.918686    1.927420    -3.518713    -17.541569    16.164696    -3.181016    0.287868    5.437992    18.154417    -2.911468    38.783062    42.275593    43.193016    -6.528078    -9.078688    16.926157    -22.553886    -8.041965    -0.381260    4.966462    -16.504206    -1.847143    0.604154    18.309425    -3.485379    -6.343956    -10.404077    -8.710297    -0.302707    -1.184665    0.336263    -5.803252    -10.378098    -0.648672    2.413008    10.632822    5.372477    0.368652    -7.827157    -14.211423    -2.277321    -0.114374    2.463433    
-4.117680    81.457428    99.589714    -0.119518    -10.879297    -174.782852    -1.941392    -12.259142    0.790648    1.670439    8.728364    0.871742    2.203260    4.726145    -2.411027    3.832826    -13.581341    -1.755070    0.293703    16.789255    -3.318233    -37.907856    45.456444    -48.910275    1.869381    -3.537993    -17.559090    16.118155    -3.203192    0.329491    5.431876    18.160925    -2.912242    38.816277    42.191040    43.130291    -6.584595    -9.043582    17.155582    -22.986429    -8.007252    -0.263559    4.971745    -16.496782    -1.836288    0.611130    18.319090    -3.514802    -6.353377    -10.404268    -8.715441    -0.296351    -1.181558    0.329201    -5.799445    -10.357933    -0.666039    2.418384    10.640963    5.372540    0.363499    -7.836383    -14.218273    -2.276543    -0.118123    2.462604    
-4.109222    81.454887    99.582741    -0.117341    -10.865547    -174.757813    -1.934999    -12.251860    0.786650    1.661923    8.743516    0.867286    2.197522    4.725094    -2.418128    3.842840    -13.570855    -1.759616    0.316882    16.763136    -3.324342    -37.959557    45.392738    -48.904861    1.812555    -3.555648    -17.576283    16.072739    -3.223714    0.370299    5.425342    18.166794    -2.912027    38.847122    42.107185    43.071922    -6.639170    -9.011331    17.379112    -23.398127    -7.975683    -0.151093    4.976829    -16.489502    -1.825769    0.617753    18.328264    -3.542966    -6.362412    -10.404248    -8.720192    -0.290114    -1.178636    0.322271    -5.795869    -10.338736    -0.682508    2.423649    10.649079    5.372595    0.358183    -7.845113    -14.224776    -2.275892    -0.121597    2.461911    
-4.099833    81.452156    99.575531    -0.115111    -10.849911    -174.730820    -1.927882    -12.243302    0.782082    1.652486    8.761003    0.862314    2.190923    4.723509    -2.425676    3.854343    -13.559543    -1.764207    0.343868    16.731783    -3.333397    -38.012268    45.319618    -48.903809    1.747773    -3.573320    -17.596445    16.020626    -3.244694    0.417094    5.416957    18.171730    -2.909627    38.878696    42.009300    43.010708    -6.699880    -8.977404    17.632872    -23.846333    -7.942630    -0.027404    4.982508    -16.481180    -1.814088    0.624985    18.338345    -3.573317    -6.372506    -10.403895    -8.725633    -0.282972    -1.175246    0.314335    -5.791878    -10.317912    -0.700146    2.429390    10.658465    5.371275    0.352575    -7.854340    -14.230433    -2.275229    -0.125334    2.461207    
-4.090947    81.449738    99.569519    -0.113289    -10.834664    -174.706512    -1.921164    -12.234399    0.777745    1.643572    8.778156    0.857478    2.184238    4.721593    -2.432403    3.866116    -13.549410    -1.767842    0.371706    16.699133    -3.345405    -38.054729    45.246693    -48.911160    1.684025    -3.587049    -17.617085    15.968825    -3.261702    0.463236    5.407290    18.174419    -2.904137    38.904224    41.909794    42.958817    -6.757802    -8.946973    17.880451    -24.257111    -7.912806    0.087916    4.987877    -16.473078    -1.802869    0.631652    18.347631    -3.600864    -6.382073    -10.402925    -8.730934    -0.276022    -1.171649    0.306613    -5.788197    -10.299047    -0.715638    2.434855    10.668042    5.368541    0.346981    -7.862452    -14.234376    -2.274719    -0.128612    2.460667    
-4.081959    81.447517    99.564552    -0.111763    -10.818833    -174.683533    -1.914530    -12.224525    0.773240    1.634811    8.796371    0.852557    2.177051    4.719131    -2.438698    3.878775    -13.539986    -1.770694    0.402602    16.662271    -3.361989    -38.088268    45.168297    -48.929127    1.617183    -3.596803    -17.640087    15.912991    -3.274924    0.511858    5.395312    18.174351    -2.894462    38.923721    41.801338    42.914829    -6.817098    -8.917373    18.138565    -24.654922    -7.883309    0.202239    4.993309    -16.464909    -1.791337    0.638182    18.356878    -3.627376    -6.391685    -10.401208    -8.736320    -0.268788    -1.167645    0.298575    -5.784442    -10.281343    -0.730380    2.440125    10.678690    5.363857    0.341627    -7.869907    -14.235831    -2.274398    -0.131561    2.460329    
-4.072780    81.445526    99.560890    -0.110444    -10.802121    -174.662018    -1.907981    -12.213251    0.768613    1.626421    8.815759    0.847425    2.169167    4.715950    -2.444505    3.892543    -13.531105    -1.772709    0.436961    16.620173    -3.384567    -38.110241    45.083069    -48.960369    1.547238    -3.601661    -17.666351    15.851571    -3.283465    0.562802    5.380622    18.170670    -2.879301    38.934387    41.682747    42.881184    -6.879155    -8.887969    18.409103    -25.038408    -7.853092    0.315645    4.999164    -16.456669    -1.779375    0.644314    18.366346    -3.652663    -6.401284    -10.398665    -8.741880    -0.261170    -1.163169    0.290110    -5.780456    -10.264900    -0.743647    2.445366    10.690545    5.356358    0.336365    -7.876442    -14.234485    -2.274215    -0.134215    2.460141    
-4.063362    81.443810    99.558868    -0.109420    -10.784660    -174.642166    -1.901592    -12.200525    0.763759    1.618262    8.836470    0.842059    2.160810    4.712658    -2.449723    3.907446    -13.523667    -1.773719    0.475977    16.572218    -3.414123    -38.118000    44.989361    -49.008675    1.474361    -3.600557    -17.696550    15.783241    -3.286266    0.615646    5.362605    18.163010    -2.857448    38.933487    41.552006    42.861500    -6.944726    -8.857652    18.693058    -25.405764    -7.820785    0.428247    5.005257    -16.448856    -1.766651    0.650366    18.376226    -3.676767    -6.410927    -10.395063    -8.747860    -0.253323    -1.158245    0.281391    -5.776242    -10.250288    -0.755493    2.450404    10.703999    5.345644    0.331262    -7.882047    -14.229732    -2.274187    -0.136445    2.460118    
-4.053706    81.442429    99.558762    -0.108601    -10.766388    -174.624268    -1.895488    -12.186103    0.758817    1.610755    8.858411    0.836468    2.151928    4.709008    -2.454361    3.923342    -13.517289    -1.773793    0.519342    16.517845    -3.451826    -38.109417    44.886375    -49.075890    1.399887    -3.592459    -17.731153    15.707376    -3.282377    0.669018    5.340825    18.150198    -2.827813    38.918251    41.410015    42.858585    -7.015089    -8.826311    18.988384    -25.753010    -7.785851    0.538974    5.011800    -16.441647    -1.753195    0.656105    18.386648    -3.699239    -6.420461    -10.390297    -8.754390    -0.245365    -1.152606    0.272549    -5.771513    -10.237938    -0.765942    2.454899    10.719234    5.330878    0.326713    -7.886480    -14.220350    -2.274390    -0.138285    2.460343    
-4.043728    81.441368    99.560860    -0.108029    -10.747106    -174.608322    -1.889689    -12.169584    0.753735    1.603796    8.881731    0.830701    2.142478    4.705192    -2.458495    3.940642    -13.511985    -1.772902    0.567988    16.456564    -3.498867    -38.082039    44.771622    -49.166088    1.324416    -3.576493    -17.770342    15.622763    -3.270994    0.721712    5.315049    18.131437    -2.789264    38.885338    41.254623    42.875908    -7.091117    -8.793252    19.296194    -26.081333    -7.747372    0.648525    5.018755    -16.435297    -1.738716    0.661755    18.398098    -3.720360    -6.430015    -10.384372    -8.761616    -0.237363    -1.146519    0.263657    -5.766302    -10.228015    -0.774822    2.458977    10.736517    5.311452    0.322612    -7.889667    -14.205927    -2.274818    -0.139561    2.460810    
-4.033374    81.440666    99.565475    -0.107718    -10.726768    -174.594452    -1.884183    -12.150856    0.748569    1.597308    8.906632    0.824740    2.133097    4.701768    -2.462045    3.958549    -13.508440    -1.771151    0.622376    16.387058    -3.556667    -38.034801    44.642994    -49.281631    1.249206    -3.551688    -17.814041    15.528852    -3.251197    0.772028    5.284644    18.105728    -2.740444    38.831306    41.084824    42.917316    -7.174106    -8.758689    19.616369    -26.390400    -7.705070    0.756313    5.026166    -16.430159    -1.723021    0.667323    18.410864    -3.740100    -6.439657    -10.377173    -8.769711    -0.229617    -1.139585    0.255050    -5.760650    -10.221036    -0.782339    2.462697    10.756369    5.287282    0.318798    -7.891517    -14.186069    -2.275459    -0.140125    2.461504    
-4.022609    81.440285    99.572952    -0.107705    -10.705261    -174.582718    -1.878946    -12.129540    0.743326    1.591076    8.933039    0.818706    2.123905    4.698774    -2.465085    3.977359    -13.505912    -1.768664    0.683057    16.308960    -3.626509    -37.965134    44.498062    -49.426540    1.175916    -3.517734    -17.861790    15.425152    -3.222642    0.818122    5.249497    18.071903    -2.680170    38.753654    40.897930    42.986210    -7.264020    -8.722330    19.947710    -26.679823    -7.658650    0.862663    5.033908    -16.426579    -1.705852    0.673032    18.425224    -3.758408    -6.449578    -10.368495    -8.779024    -0.222065    -1.131799    0.246658    -5.754431    -10.217431    -0.789049    2.465677    10.779211    5.257430    0.315797    -7.891993    -14.159145    -2.276327    -0.140329    2.462446    
